<svg width="63" height="15" viewBox="0 0 63 15" fill="none" xmlns="http://www.w3.org/2000/svg">
<path d="M5.728 1.736C6.47467 1.736 7.104 1.83467 7.616 2.032C8.13333 2.224 8.61333 2.50133 9.056 2.864L8.088 4.016C7.75733 3.73867 7.40267 3.53333 7.024 3.4C6.64533 3.26667 6.24267 3.2 5.816 3.2C5.26667 3.2 4.76 3.33867 4.296 3.616C3.832 3.89333 3.45867 4.344 3.176 4.968C2.89867 5.592 2.76 6.424 2.76 7.464C2.76 8.48267 2.89333 9.304 3.16 9.928C3.42667 10.552 3.792 11.0053 4.256 11.288C4.72 11.5707 5.24 11.712 5.816 11.712C6.408 11.712 6.89867 11.616 7.288 11.424C7.67733 11.2267 8.02133 11.0053 8.32 10.76L9.216 11.904C8.848 12.2613 8.38133 12.5707 7.816 12.832C7.25067 13.088 6.56267 13.216 5.752 13.216C4.81867 13.216 3.97867 12.9973 3.232 12.56C2.49067 12.1173 1.904 11.4693 1.472 10.616C1.04533 9.76267 0.832 8.712 0.832 7.464C0.832 6.22667 1.05333 5.184 1.496 4.336C1.93867 3.48267 2.53067 2.83733 3.272 2.4C4.01333 1.95733 4.832 1.736 5.728 1.736ZM14.4018 4.328C15.2284 4.328 15.9244 4.512 16.4898 4.88C17.0551 5.248 17.4818 5.76267 17.7698 6.424C18.0631 7.08533 18.2098 7.864 18.2098 8.76C18.2098 9.65067 18.0604 10.432 17.7618 11.104C17.4684 11.7707 17.0364 12.2907 16.4658 12.664C15.9004 13.032 15.2098 13.216 14.3938 13.216C13.5778 13.216 12.8844 13.0373 12.3138 12.68C11.7484 12.3173 11.3164 11.8027 11.0178 11.136C10.7244 10.4693 10.5778 9.68267 10.5778 8.776C10.5778 7.896 10.7244 7.12267 11.0178 6.456C11.3164 5.78933 11.7511 5.26933 12.3218 4.896C12.8924 4.51733 13.5858 4.328 14.4018 4.328ZM14.4018 5.72C13.7564 5.72 13.2711 5.968 12.9458 6.464C12.6204 6.95467 12.4578 7.72533 12.4578 8.776C12.4578 9.82133 12.6178 10.592 12.9378 11.088C13.2631 11.584 13.7484 11.832 14.3938 11.832C15.0391 11.832 15.5218 11.584 15.8418 11.088C16.1671 10.592 16.3298 9.816 16.3298 8.76C16.3298 7.72 16.1698 6.95467 15.8498 6.464C15.5298 5.968 15.0471 5.72 14.4018 5.72ZM25.5715 0.959999L27.3635 1.16V13H25.7875L25.6595 11.96C25.3715 12.36 25.0275 12.6693 24.6275 12.888C24.2275 13.1067 23.7795 13.216 23.2835 13.216C22.5582 13.216 21.9608 13.032 21.4915 12.664C21.0222 12.2907 20.6728 11.7707 20.4435 11.104C20.2195 10.432 20.1075 9.656 20.1075 8.776C20.1075 7.91733 20.2408 7.15467 20.5075 6.488C20.7742 5.816 21.1555 5.288 21.6515 4.904C22.1475 4.52 22.7448 4.328 23.4435 4.328C23.8862 4.328 24.2835 4.408 24.6355 4.568C24.9875 4.72267 25.2995 4.94933 25.5715 5.248V0.959999ZM23.9155 5.704C23.3128 5.704 22.8435 5.95467 22.5075 6.456C22.1715 6.952 22.0035 7.72533 22.0035 8.776C22.0035 9.496 22.0728 10.0827 22.2115 10.536C22.3502 10.984 22.5502 11.3147 22.8115 11.528C23.0728 11.736 23.3875 11.84 23.7555 11.84C24.1608 11.84 24.5128 11.7227 24.8115 11.488C25.1102 11.2533 25.3635 10.9707 25.5715 10.64V6.64C25.3635 6.34133 25.1208 6.112 24.8435 5.952C24.5662 5.78667 24.2568 5.704 23.9155 5.704ZM31.6933 9.352C31.7306 9.928 31.8533 10.4 32.0613 10.768C32.2693 11.1307 32.5413 11.3973 32.8773 11.568C33.2186 11.7387 33.5919 11.824 33.9973 11.824C34.4133 11.824 34.7973 11.76 35.1493 11.632C35.5013 11.504 35.8559 11.3227 36.2133 11.088L36.9893 12.16C36.5946 12.48 36.1333 12.736 35.6053 12.928C35.0773 13.12 34.5119 13.216 33.9093 13.216C33.0346 13.216 32.2933 13.0293 31.6853 12.656C31.0826 12.2827 30.6239 11.7627 30.3093 11.096C29.9946 10.4293 29.8372 9.65867 29.8372 8.784C29.8372 7.936 29.9919 7.17867 30.3013 6.512C30.6106 5.84 31.0533 5.30933 31.6293 4.92C32.2053 4.52533 32.8933 4.328 33.6933 4.328C34.4453 4.328 35.0906 4.49867 35.6293 4.84C36.1733 5.18133 36.5919 5.66667 36.8853 6.296C37.1839 6.92 37.3333 7.672 37.3333 8.552C37.3333 8.696 37.3279 8.84 37.3173 8.984C37.3119 9.12267 37.3039 9.24533 37.2933 9.352H31.6933ZM33.7093 5.656C33.1493 5.656 32.6853 5.856 32.3173 6.256C31.9546 6.656 31.7439 7.28 31.6853 8.128H35.5973C35.5813 7.33333 35.4106 6.72267 35.0853 6.296C34.7653 5.86933 34.3066 5.656 33.7093 5.656ZM52.8665 9.568L61.6665 5.696L62.2745 7.024L53.4665 10.936L52.8665 9.568ZM53.2505 13.448L62.0505 9.576L62.6585 10.896L53.8505 14.816L53.2505 13.448ZM52.8665 2.992L53.4665 1.624L62.2745 5.536V7.024L61.6665 6.856L52.8665 2.992Z" fill="#ABB2BF"/>
</svg>
